# xmcd
#
# Track frame offsets:
# 150
# 16417
# 30362
# 42212
# 57230
# 75747
# 101979
# 116054
# 129911
# 146306
# 162766
# 173424
# 183824
# 197644
# 216224
#
# Disc length: 3396 seconds
#
#
# Revision: 0
# Processed by: cddbd v1.5.2PL0 Copyright (c) Steve Scherf et al.
# Submitted via: FreeRIP 2.951 
#
DISCID=bc0d420f
DTITLE=Kevin Henderson - recollection
DYEAR=1900
DGENRE=Country
TTITLE0=dock of the bay
TTITLE1=tequila, chili and you
TTITLE2=the wanderer
TTITLE3=let me be the first to make it last
TTITLE4=little green aliens
TTITLE5=leaving on a jet plane
TTITLE6=great pretender
TTITLE7=you and only you
TTITLE8=under the boardwalk
TTITLE9=in the ghetto
TTITLE10=needles and pins
TTITLE11=ring of fire
TTITLE12=the actress
TTITLE13=I will be seeing you
TTITLE14=hoochie coochie man
EXTD=
EXTT0=
EXTT1=
EXTT2=
EXTT3=
EXTT4=
EXTT5=
EXTT6=
EXTT7=
EXTT8=
EXTT9=
EXTT10=
EXTT11=
EXTT12=
EXTT13=
EXTT14=
PLAYORDER=
